<mxfile host="app.diagrams.net" modified="2023-10-19T15:23:13.408Z" agent="Mozilla/5.0 (Windows NT 10.0; Win64; x64) AppleWebKit/537.36 (KHTML, like Gecko) Chrome/117.0.0.0 Safari/537.36" etag="5StNjUuzZRIQZLLf_J_B" version="22.0.5" type="github">
  <diagram name="Página-1" id="6cXJAgSFR8SDZvRuZiDq">
    <mxGraphModel dx="880" dy="478" grid="1" gridSize="10" guides="1" tooltips="1" connect="1" arrows="1" fold="1" page="1" pageScale="1" pageWidth="827" pageHeight="1169" math="0" shadow="0">
      <root>
        <mxCell id="0" />
        <mxCell id="1" parent="0" />
        <mxCell id="vPdgHRfFSWfKp6ZztJ-t-41" value="" style="whiteSpace=wrap;html=1;aspect=fixed;fillColor=none;strokeWidth=3;" parent="1" vertex="1">
          <mxGeometry x="130" y="110" width="670" height="670" as="geometry" />
        </mxCell>
        <mxCell id="vPdgHRfFSWfKp6ZztJ-t-4" style="edgeStyle=orthogonalEdgeStyle;rounded=0;orthogonalLoop=1;jettySize=auto;html=1;exitX=1;exitY=0.5;exitDx=0;exitDy=0;entryX=0;entryY=0.5;entryDx=0;entryDy=0;" parent="1" source="vPdgHRfFSWfKp6ZztJ-t-1" target="vPdgHRfFSWfKp6ZztJ-t-2" edge="1">
          <mxGeometry relative="1" as="geometry" />
        </mxCell>
        <mxCell id="vPdgHRfFSWfKp6ZztJ-t-1" value="inicio" style="ellipse;whiteSpace=wrap;html=1;aspect=fixed;" parent="1" vertex="1">
          <mxGeometry x="40" y="20" width="80" height="80" as="geometry" />
        </mxCell>
        <mxCell id="vPdgHRfFSWfKp6ZztJ-t-2" value="Acessar págna desafio" style="whiteSpace=wrap;html=1;aspect=fixed;" parent="1" vertex="1">
          <mxGeometry x="170" y="20" width="80" height="80" as="geometry" />
        </mxCell>
        <mxCell id="tLZP72f9Z5mE0d8gs10f-4" style="edgeStyle=orthogonalEdgeStyle;rounded=0;orthogonalLoop=1;jettySize=auto;html=1;exitX=0.5;exitY=1;exitDx=0;exitDy=0;entryX=0.5;entryY=0;entryDx=0;entryDy=0;" edge="1" parent="1" source="vPdgHRfFSWfKp6ZztJ-t-6" target="vPdgHRfFSWfKp6ZztJ-t-12">
          <mxGeometry relative="1" as="geometry" />
        </mxCell>
        <mxCell id="vPdgHRfFSWfKp6ZztJ-t-6" value="Pegar o numero do PO" style="whiteSpace=wrap;html=1;aspect=fixed;" parent="1" vertex="1">
          <mxGeometry x="144" y="130" width="80" height="80" as="geometry" />
        </mxCell>
        <mxCell id="vPdgHRfFSWfKp6ZztJ-t-12" value="Acessar Procure Ease" style="whiteSpace=wrap;html=1;aspect=fixed;" parent="1" vertex="1">
          <mxGeometry x="144" y="260" width="80" height="80" as="geometry" />
        </mxCell>
        <mxCell id="vPdgHRfFSWfKp6ZztJ-t-13" style="edgeStyle=orthogonalEdgeStyle;rounded=0;orthogonalLoop=1;jettySize=auto;html=1;exitX=1;exitY=0.5;exitDx=0;exitDy=0;entryX=0;entryY=0.5;entryDx=0;entryDy=0;" parent="1" target="vPdgHRfFSWfKp6ZztJ-t-14" edge="1">
          <mxGeometry relative="1" as="geometry">
            <mxPoint x="224" y="300" as="sourcePoint" />
          </mxGeometry>
        </mxCell>
        <mxCell id="vPdgHRfFSWfKp6ZztJ-t-14" value="Procurar pelo PO" style="whiteSpace=wrap;html=1;aspect=fixed;" parent="1" vertex="1">
          <mxGeometry x="274" y="260" width="80" height="80" as="geometry" />
        </mxCell>
        <mxCell id="vPdgHRfFSWfKp6ZztJ-t-18" value="Acessar ChatGPT e pegar Estado" style="whiteSpace=wrap;html=1;aspect=fixed;" parent="1" vertex="1">
          <mxGeometry x="144" y="390" width="80" height="80" as="geometry" />
        </mxCell>
        <mxCell id="vPdgHRfFSWfKp6ZztJ-t-19" style="edgeStyle=orthogonalEdgeStyle;rounded=0;orthogonalLoop=1;jettySize=auto;html=1;exitX=1;exitY=0.5;exitDx=0;exitDy=0;entryX=0;entryY=0.5;entryDx=0;entryDy=0;" parent="1" target="vPdgHRfFSWfKp6ZztJ-t-20" edge="1">
          <mxGeometry relative="1" as="geometry">
            <mxPoint x="224" y="430" as="sourcePoint" />
          </mxGeometry>
        </mxCell>
        <mxCell id="vPdgHRfFSWfKp6ZztJ-t-20" value="Inputar informações no ShipGlobe" style="whiteSpace=wrap;html=1;aspect=fixed;" parent="1" vertex="1">
          <mxGeometry x="284" y="390" width="80" height="80" as="geometry" />
        </mxCell>
        <mxCell id="vPdgHRfFSWfKp6ZztJ-t-23" style="edgeStyle=orthogonalEdgeStyle;rounded=0;orthogonalLoop=1;jettySize=auto;html=1;exitX=1;exitY=0.5;exitDx=0;exitDy=0;entryX=0;entryY=0.5;entryDx=0;entryDy=0;" parent="1" edge="1">
          <mxGeometry relative="1" as="geometry">
            <mxPoint x="354" y="430" as="sourcePoint" />
            <mxPoint x="404" y="430" as="targetPoint" />
          </mxGeometry>
        </mxCell>
        <mxCell id="vPdgHRfFSWfKp6ZztJ-t-26" value="Condição do Order total" style="rhombus;whiteSpace=wrap;html=1;" parent="1" vertex="1">
          <mxGeometry x="403" y="385" width="101" height="90" as="geometry" />
        </mxCell>
        <mxCell id="vPdgHRfFSWfKp6ZztJ-t-27" style="edgeStyle=orthogonalEdgeStyle;rounded=0;orthogonalLoop=1;jettySize=auto;html=1;exitX=1;exitY=0.5;exitDx=0;exitDy=0;entryX=0;entryY=0.5;entryDx=0;entryDy=0;" parent="1" target="vPdgHRfFSWfKp6ZztJ-t-28" edge="1">
          <mxGeometry relative="1" as="geometry">
            <mxPoint x="504" y="430" as="sourcePoint" />
          </mxGeometry>
        </mxCell>
        <mxCell id="vPdgHRfFSWfKp6ZztJ-t-28" value="Gerar Tracking number" style="whiteSpace=wrap;html=1;aspect=fixed;" parent="1" vertex="1">
          <mxGeometry x="564" y="390" width="80" height="80" as="geometry" />
        </mxCell>
        <mxCell id="vPdgHRfFSWfKp6ZztJ-t-29" style="edgeStyle=orthogonalEdgeStyle;rounded=0;orthogonalLoop=1;jettySize=auto;html=1;exitX=1;exitY=0.5;exitDx=0;exitDy=0;entryX=0;entryY=0.5;entryDx=0;entryDy=0;" parent="1" target="vPdgHRfFSWfKp6ZztJ-t-30" edge="1">
          <mxGeometry relative="1" as="geometry">
            <mxPoint x="644" y="430" as="sourcePoint" />
          </mxGeometry>
        </mxCell>
        <mxCell id="vPdgHRfFSWfKp6ZztJ-t-30" value="Capturar Tracking number" style="whiteSpace=wrap;html=1;aspect=fixed;" parent="1" vertex="1">
          <mxGeometry x="704" y="390" width="80" height="80" as="geometry" />
        </mxCell>
        <mxCell id="vPdgHRfFSWfKp6ZztJ-t-31" style="edgeStyle=orthogonalEdgeStyle;rounded=0;orthogonalLoop=1;jettySize=auto;html=1;exitX=0.5;exitY=1;exitDx=0;exitDy=0;" parent="1" edge="1">
          <mxGeometry relative="1" as="geometry">
            <mxPoint x="174" y="520" as="targetPoint" />
            <mxPoint x="744" y="470" as="sourcePoint" />
            <Array as="points">
              <mxPoint x="744" y="490" />
              <mxPoint x="174" y="490" />
              <mxPoint x="174" y="520" />
            </Array>
          </mxGeometry>
        </mxCell>
        <mxCell id="vPdgHRfFSWfKp6ZztJ-t-32" value="Voltar a Página do desafio" style="whiteSpace=wrap;html=1;aspect=fixed;" parent="1" vertex="1">
          <mxGeometry x="144" y="520" width="80" height="80" as="geometry" />
        </mxCell>
        <mxCell id="vPdgHRfFSWfKp6ZztJ-t-33" style="edgeStyle=orthogonalEdgeStyle;rounded=0;orthogonalLoop=1;jettySize=auto;html=1;exitX=1;exitY=0.5;exitDx=0;exitDy=0;entryX=0;entryY=0.5;entryDx=0;entryDy=0;" parent="1" edge="1">
          <mxGeometry relative="1" as="geometry">
            <mxPoint x="224" y="560" as="sourcePoint" />
            <mxPoint x="284" y="560" as="targetPoint" />
          </mxGeometry>
        </mxCell>
        <mxCell id="vPdgHRfFSWfKp6ZztJ-t-45" style="edgeStyle=orthogonalEdgeStyle;rounded=0;orthogonalLoop=1;jettySize=auto;html=1;exitX=0.5;exitY=1;exitDx=0;exitDy=0;" parent="1" source="vPdgHRfFSWfKp6ZztJ-t-34" target="vPdgHRfFSWfKp6ZztJ-t-41" edge="1">
          <mxGeometry relative="1" as="geometry">
            <Array as="points">
              <mxPoint x="430" y="700" />
              <mxPoint x="430" y="700" />
            </Array>
          </mxGeometry>
        </mxCell>
        <mxCell id="vPdgHRfFSWfKp6ZztJ-t-34" value="Lançar tracking number e Shipping type" style="whiteSpace=wrap;html=1;aspect=fixed;" parent="1" vertex="1">
          <mxGeometry x="284" y="520" width="80" height="80" as="geometry" />
        </mxCell>
        <mxCell id="vPdgHRfFSWfKp6ZztJ-t-36" value="Submeter&lt;br&gt;Fim" style="ellipse;whiteSpace=wrap;html=1;aspect=fixed;" parent="1" vertex="1">
          <mxGeometry x="284" y="780" width="80" height="80" as="geometry" />
        </mxCell>
        <mxCell id="vPdgHRfFSWfKp6ZztJ-t-42" style="edgeStyle=orthogonalEdgeStyle;rounded=0;orthogonalLoop=1;jettySize=auto;html=1;exitX=0.5;exitY=1;exitDx=0;exitDy=0;" parent="1" source="vPdgHRfFSWfKp6ZztJ-t-41" target="vPdgHRfFSWfKp6ZztJ-t-41" edge="1">
          <mxGeometry relative="1" as="geometry" />
        </mxCell>
        <mxCell id="vPdgHRfFSWfKp6ZztJ-t-47" value="LOOPING" style="text;strokeColor=none;align=center;fillColor=none;html=1;verticalAlign=middle;whiteSpace=wrap;rounded=0;" parent="1" vertex="1">
          <mxGeometry x="560" y="80" width="60" height="30" as="geometry" />
        </mxCell>
        <mxCell id="tLZP72f9Z5mE0d8gs10f-1" style="edgeStyle=orthogonalEdgeStyle;rounded=0;orthogonalLoop=1;jettySize=auto;html=1;exitX=1;exitY=0.5;exitDx=0;exitDy=0;entryX=0;entryY=0.5;entryDx=0;entryDy=0;" edge="1" parent="1" target="tLZP72f9Z5mE0d8gs10f-2">
          <mxGeometry relative="1" as="geometry">
            <mxPoint x="250" y="60" as="sourcePoint" />
          </mxGeometry>
        </mxCell>
        <mxCell id="tLZP72f9Z5mE0d8gs10f-2" value="Acessar ProcureEase" style="whiteSpace=wrap;html=1;aspect=fixed;" vertex="1" parent="1">
          <mxGeometry x="300" y="20" width="80" height="80" as="geometry" />
        </mxCell>
        <mxCell id="tLZP72f9Z5mE0d8gs10f-5" style="edgeStyle=orthogonalEdgeStyle;rounded=0;orthogonalLoop=1;jettySize=auto;html=1;exitX=1;exitY=0.5;exitDx=0;exitDy=0;entryX=0;entryY=0.5;entryDx=0;entryDy=0;" edge="1" parent="1" target="tLZP72f9Z5mE0d8gs10f-6">
          <mxGeometry relative="1" as="geometry">
            <mxPoint x="388.5" y="60" as="sourcePoint" />
          </mxGeometry>
        </mxCell>
        <mxCell id="tLZP72f9Z5mE0d8gs10f-10" style="edgeStyle=orthogonalEdgeStyle;rounded=0;orthogonalLoop=1;jettySize=auto;html=1;exitX=0.5;exitY=1;exitDx=0;exitDy=0;entryX=1;entryY=0.5;entryDx=0;entryDy=0;" edge="1" parent="1" source="tLZP72f9Z5mE0d8gs10f-6" target="vPdgHRfFSWfKp6ZztJ-t-6">
          <mxGeometry relative="1" as="geometry">
            <mxPoint x="380" y="240" as="targetPoint" />
          </mxGeometry>
        </mxCell>
        <mxCell id="tLZP72f9Z5mE0d8gs10f-6" value="Acessar ShipGlobe" style="whiteSpace=wrap;html=1;aspect=fixed;" vertex="1" parent="1">
          <mxGeometry x="438.5" y="20" width="80" height="80" as="geometry" />
        </mxCell>
        <mxCell id="tLZP72f9Z5mE0d8gs10f-13" style="edgeStyle=orthogonalEdgeStyle;rounded=0;orthogonalLoop=1;jettySize=auto;html=1;exitX=1;exitY=0.5;exitDx=0;exitDy=0;entryX=0;entryY=0.5;entryDx=0;entryDy=0;" edge="1" parent="1" target="tLZP72f9Z5mE0d8gs10f-14">
          <mxGeometry relative="1" as="geometry">
            <mxPoint x="354" y="300" as="sourcePoint" />
          </mxGeometry>
        </mxCell>
        <mxCell id="tLZP72f9Z5mE0d8gs10f-23" style="edgeStyle=orthogonalEdgeStyle;rounded=0;orthogonalLoop=1;jettySize=auto;html=1;exitX=1;exitY=0.5;exitDx=0;exitDy=0;entryX=0;entryY=0.5;entryDx=0;entryDy=0;" edge="1" parent="1" source="tLZP72f9Z5mE0d8gs10f-14" target="tLZP72f9Z5mE0d8gs10f-16">
          <mxGeometry relative="1" as="geometry" />
        </mxCell>
        <mxCell id="tLZP72f9Z5mE0d8gs10f-14" value="Capturar as informações" style="whiteSpace=wrap;html=1;aspect=fixed;" vertex="1" parent="1">
          <mxGeometry x="404" y="260" width="80" height="80" as="geometry" />
        </mxCell>
        <mxCell id="tLZP72f9Z5mE0d8gs10f-19" style="edgeStyle=orthogonalEdgeStyle;rounded=0;orthogonalLoop=1;jettySize=auto;html=1;exitX=0.5;exitY=1;exitDx=0;exitDy=0;entryX=0.5;entryY=0;entryDx=0;entryDy=0;" edge="1" parent="1" source="tLZP72f9Z5mE0d8gs10f-16" target="vPdgHRfFSWfKp6ZztJ-t-18">
          <mxGeometry relative="1" as="geometry" />
        </mxCell>
        <mxCell id="tLZP72f9Z5mE0d8gs10f-16" value="Tratar strings" style="whiteSpace=wrap;html=1;aspect=fixed;" vertex="1" parent="1">
          <mxGeometry x="540" y="260" width="80" height="80" as="geometry" />
        </mxCell>
      </root>
    </mxGraphModel>
  </diagram>
</mxfile>
